# xmcd
#
# Track frame offsets: 
#        150
#        21647
#        38137
#        55357
#        75460
#        94317
#        107787
#        129087
#        147632
#        164537
#        181130
#        221410
#
# Disc length: 3189 seconds
#
# Revision: 36
# Processed by: cddbd v1.5.2PL0 Copyright (c) Steve Scherf et al.
# Submitted via: ExactAudioCopyFreeDBPlugin 1.0
#
DISCID=a80c730c
DTITLE=Garth Brooks - Double Live [CD2]
DYEAR=1998
DGENRE=Country
TTITLE0=Ain't Goin' Down ('Til The Sun Comes Up) [Live]
TTITLE1=Rodeo [Live]
TTITLE2=The Beaches Of Cheyenne [Live]
TTITLE3=Two Piña Coladas [Live]
TTITLE4=Wild As The Wind [With Trisha Yearwood] [Live]
TTITLE5=To Make You Feel My Love [Live]
TTITLE6=That Summer [Live]
TTITLE7=American Honky-Tonk Bar Association [Live]
TTITLE8=If Tomorrow Never Comes [Live]
TTITLE9=The Fever [Live]
TTITLE10=Friends In Low Places [The Long Version] [Live]
TTITLE11=The Dance [Live]
EXTD=
EXTT0=
EXTT1=
EXTT2=
EXTT3=
EXTT4=
EXTT5=
EXTT6=
EXTT7=
EXTT8=
EXTT9=
EXTT10=
EXTT11=
PLAYORDER=
